<svg width="51" height="57" viewBox="0 0 51 57" fill="none" xmlns="http://www.w3.org/2000/svg">
<path d="M49.3479 41.06C47.8864 32.3361 43.7094 24.2958 37.4119 18.084C36.0333 16.7427 35.3453 16.0734 33.8226 15.4547C32.2999 14.8334 30.9906 14.8334 28.3746 14.8334H22.6253C20.0093 14.8334 18.6999 14.8334 17.1773 15.4547C15.6573 16.0734 14.9639 16.7427 13.5879 18.084C7.2905 24.2958 3.11355 32.3361 1.65195 41.06C0.353283 48.8947 7.57995 54.8334 15.6546 54.8334H35.3453C43.4226 54.8334 50.6519 48.8947 49.3453 41.06" stroke="#666666" stroke-width="3" stroke-linecap="round" stroke-linejoin="round"/>
<path d="M29.8385 30.6173C29.2625 28.4867 26.3265 26.5667 22.8038 28.004C19.2812 29.4413 18.7238 34.0627 24.0492 34.556C26.4598 34.7773 28.0278 34.2973 29.4652 35.6547C30.9052 37.0093 31.1718 40.7827 27.4945 41.7987C23.8225 42.8147 20.1825 41.228 19.7878 38.972M25.0785 25.4787V27.508M25.0785 42.1107V44.148M12.8518 8.01467C12.2998 7.21467 11.5025 6.12667 13.1505 5.88133C14.8438 5.62533 16.6012 6.78267 18.3238 6.76133C19.8785 6.73733 20.6705 6.04667 21.5238 5.06C22.4198 4.02267 23.8065 1.5 25.4998 1.5C27.1932 1.5 28.5798 4.02267 29.4758 5.06C30.3292 6.04667 31.1212 6.74 32.6758 6.75867C34.3985 6.78533 36.1558 5.62533 37.8492 5.87867C39.4972 6.12667 38.6998 7.212 38.1478 8.012L35.6625 11.636C34.5958 13.1827 34.0652 13.956 32.9505 14.396C31.8358 14.836 30.3985 14.8333 27.5212 14.8333H23.4785C20.5985 14.8333 19.1612 14.8333 18.0492 14.396C16.9372 13.9587 16.4038 13.18 15.3372 11.6333L12.8518 8.01467Z" stroke="#666666" stroke-width="3" stroke-linecap="round" stroke-linejoin="round"/>
</svg>
