<svg width="54" height="54" viewBox="0 0 54 54" fill="none" xmlns="http://www.w3.org/2000/svg">
<path d="M19.6667 5.33358C20.1087 5.33358 20.5326 5.50917 20.8452 5.82173C21.1577 6.13429 21.3333 6.55822 21.3333 7.00024C21.3333 7.44227 21.1577 7.86619 20.8452 8.17875C20.5326 8.49131 20.1087 8.66691 19.6667 8.66691H9.66667C7.98696 8.66691 6.37605 9.33417 5.18832 10.5219C4.00059 11.7096 3.33333 13.3205 3.33333 15.0002V43.6669C3.33333 44.4986 3.49715 45.3222 3.81543 46.0906C4.13371 46.859 4.60022 47.5572 5.18832 48.1453C5.77643 48.7334 6.47461 49.1999 7.24301 49.5182C8.0114 49.8364 8.83496 50.0002 9.66667 50.0002H38.3333C39.165 50.0002 39.9886 49.8364 40.757 49.5182C41.5254 49.1999 42.2236 48.7334 42.8117 48.1453C43.3998 47.5572 43.8663 46.859 44.1846 46.0906C44.5028 45.3222 44.6667 44.4986 44.6667 43.6669V35.0002C44.6667 34.5582 44.8423 34.1343 45.1548 33.8217C45.4674 33.5092 45.8913 33.3336 46.3333 33.3336C46.7754 33.3336 47.1993 33.5092 47.5118 33.8217C47.8244 34.1343 48 34.5582 48 35.0002V43.6669C48 46.2307 46.9816 48.6894 45.1687 50.5023C43.3559 52.3151 40.8971 53.3336 38.3333 53.3336H9.66667C7.10291 53.3336 4.64415 52.3151 2.8313 50.5023C1.01845 48.6894 0 46.2307 0 43.6669V15.0002C0 12.4365 1.01845 9.97773 2.8313 8.16488C4.64415 6.35203 7.10291 5.33358 9.66667 5.33358H19.6667ZM31.632 0.154909C31.9202 0.0211454 32.2406 -0.0274575 32.5555 0.0148275C32.8704 0.0571125 33.1666 0.188524 33.4093 0.393576L52.7427 16.7269C52.9237 16.8799 53.0701 17.0697 53.1719 17.2837C53.2738 17.4978 53.3288 17.7311 53.3334 17.968C53.3379 18.205 53.2919 18.4403 53.1983 18.658C53.1047 18.8758 52.9657 19.0711 52.7907 19.2309L33.4573 36.8976C33.2187 37.1156 32.9218 37.2594 32.6028 37.3117C32.2839 37.364 31.9566 37.3223 31.6608 37.1919C31.3651 37.0615 31.1137 36.8479 30.9371 36.5771C30.7606 36.3064 30.6667 35.9901 30.6667 35.6669V28.0376C27.9267 28.1682 25.304 28.6642 22.616 29.9936C19.576 31.4949 16.3293 34.1202 12.7253 38.7202L12 39.6669C11.7958 39.9391 11.5131 40.1422 11.19 40.249C10.8669 40.3558 10.5189 40.3611 10.1927 40.2643C9.86648 40.1674 9.57772 39.9731 9.36523 39.7073C9.15273 39.4415 9.02668 39.1171 9.004 38.7776C8.64933 33.4549 10.0547 26.1909 13.7027 20.2149C17.152 14.5642 22.6893 9.95758 30.6667 9.39224V1.66691C30.6667 1.01758 31.0427 0.428243 31.632 0.154909ZM34 11.0002C34 11.4423 33.8244 11.8662 33.5118 12.1788C33.1993 12.4913 32.7754 12.6669 32.3333 12.6669C24.8827 12.6669 19.7827 16.6549 16.5493 21.9522C14.2813 25.6696 12.9787 29.9709 12.4987 33.8189C15.4507 30.5736 18.2987 28.4096 21.1387 27.0056C24.992 25.1002 28.692 24.6669 32.3333 24.6669C32.7754 24.6669 33.1993 24.8425 33.5118 25.1551C33.8244 25.4676 34 25.8915 34 26.3336V31.8842L49.14 18.0482L34 5.25624V11.0002Z" fill="#666666"/>
</svg>
