<svg width="55" height="49" viewBox="0 0 55 49" fill="none" xmlns="http://www.w3.org/2000/svg">
<path d="M17.1969 31.1429H37.1854V30.6414C37.1854 28.879 36.2992 27.5144 34.5267 26.5476C32.7583 25.5808 30.3131 25.0974 27.1912 25.0974C24.0692 25.0974 21.623 25.5808 19.8526 26.5476C18.0821 27.5144 17.1969 28.879 17.1969 30.6414V31.1429ZM27.1912 20.2181C28.4661 20.2181 29.5397 19.7821 30.4118 18.9099C31.2859 18.0358 31.723 16.9612 31.723 15.6863C31.723 14.4113 31.2859 13.3378 30.4118 12.4656C29.5377 11.5935 28.4641 11.1564 27.1912 11.1544C25.9182 11.1524 24.8447 11.5895 23.9705 12.4656C23.0964 13.3418 22.6593 14.4153 22.6593 15.6863C22.6593 16.9572 23.0964 18.0318 23.9705 18.9099C24.8427 19.7821 25.9162 20.2181 27.1912 20.2181ZM18.1274 48.3398V42.2974H4.88232C3.49054 42.2974 2.32938 41.8321 1.39883 40.9016C0.468292 39.971 0.00201416 38.8088 0 37.415V4.88232C0 3.49054 0.466278 2.32938 1.39883 1.39883C2.33139 0.468292 3.49155 0.00201416 4.8793 0H49.503C50.8928 0 52.053 0.466278 52.9835 1.39883C53.914 2.33139 54.3803 3.49255 54.3823 4.88232V37.4181C54.3823 38.8078 53.916 39.969 52.9835 40.9016C52.0509 41.8341 50.8908 42.2994 49.503 42.2974H36.2549V48.3398H18.1274ZM4.88232 39.2761H49.503C49.9663 39.2761 50.3923 39.0828 50.781 38.696C51.1697 38.3093 51.3631 37.8823 51.3611 37.415V4.88232C51.3611 4.41705 51.1677 3.99005 50.781 3.60132C50.3943 3.21259 49.9683 3.01923 49.503 3.02124H4.8793C4.41605 3.02124 3.99005 3.2146 3.60132 3.60132C3.21259 3.98804 3.01923 4.41504 3.02124 4.88232V37.4181C3.02124 37.8813 3.2146 38.3073 3.60132 38.696C3.98804 39.0848 4.41403 39.2781 4.8793 39.2761" fill="#666666"/>
</svg>
